<?xml version="1.0" encoding="UTF-8" standalone="no"?>
<!-- Created with Inkscape (http://www.inkscape.org/) -->

<svg xmlns:dc="http://purl.org/dc/elements/1.1/" xmlns:cc="http://creativecommons.org/ns#" xmlns:rdf="http://www.w3.org/1999/02/22-rdf-syntax-ns#" xmlns:svg="http://www.w3.org/2000/svg" xmlns="http://www.w3.org/2000/svg" xmlns:sodipodi="http://sodipodi.sourceforge.net/DTD/sodipodi-0.dtd" xmlns:inkscape="http://www.inkscape.org/namespaces/inkscape" id="svg2996" version="1.1" inkscape:version="0.48.5 r10040" width="1000" height="232" sodipodi:docname="Fortune-logo-2016.png">
  <metadata id="metadata3002">
    <rdf:RDF>
      <cc:Work rdf:about="">
        <dc:format>image/svg+xml</dc:format>
        <dc:type rdf:resource="http://purl.org/dc/dcmitype/StillImage" />
        <dc:title></dc:title>
      </cc:Work>
    </rdf:RDF>
  </metadata>
  <defs id="defs3000" />
  <sodipodi:namedview pagecolor="#ffffff" bordercolor="#666666" borderopacity="1" objecttolerance="10" gridtolerance="10" guidetolerance="10" inkscape:pageopacity="0" inkscape:pageshadow="2" inkscape:window-width="1366" inkscape:window-height="706" id="namedview2998" showgrid="false" fit-margin-top="0" fit-margin-left="0" fit-margin-right="0" fit-margin-bottom="0" inkscape:zoom="1.3277894" inkscape:cx="507.05044" inkscape:cy="-3.3450126" inkscape:window-x="-8" inkscape:window-y="-8" inkscape:window-maximized="1" inkscape:current-layer="svg2996" />
  <g id="g3025" transform="matrix(1.3908205,0,0,1.3906229,201.46323,401.32555)">
    <path id="path3022" d="m -12.90625,-288.59375 c -13.76051,0.0573 -27.449171,7.29828 -34.28125,21.71875 l -3.15625,6.65625 0,55 0,55 3.15625,6.65625 c 4.89836,10.33882 12.48019,16.8655 23.84375,20.46875 8.14392,2.58235 21.12563,1.22155 29.40625,-3.0625 5.37128,-2.77889 12.97233,-11.05235 15.90625,-17.3125 l 2.6875,-5.75 0,-56 0,-56 -2.9375,-5.9375 c -7.05197,-14.36267 -20.86449038,-21.49478 -34.625,-21.4375 z m 0.625,27.25 c 0.497658,0.003 0.995413,0.0523 1.46875,0.15625 1.5868,0.34852 4.2332,2.18825 5.90625,4.09375 l 3.0625,3.46875 0,48.15625 0,48.15625 -2.25,3.28125 c -1.2375,1.81311 -3.56168,3.75408 -5.15625,4.3125 -1.59458,0.55841 -3.39458,1.008 -4,1 -2.40988,-0.0323 -6.15043,-2.69796 -8.3125,-5.90625 l -2.28125,-3.375 0,-47.09375 c 0.0036,-44.95272 0.07453,-47.25714 1.9375,-50.3125 2.203346,-3.61363 6.141394,-5.96092 9.625,-5.9375 z" style="fill:#0f0f0f" inkscape:connector-curvature="0" />
    <path id="path3018" d="m 302.37146,-123.61672 c -11.59171,-4.29932 -19.20633,-11.70557 -23.59424,-22.9486 -1.54411,-3.95646 -1.6993,-10.63823 -1.67225,-72.00001 l 0.0298,-67.63881 13.50658,-0.27822 13.50657,-0.27822 0.0147,64.77822 c 0.0114,50.05898 0.30085,65.34628 1.27389,67.27822 0.69253,1.375 2.85039,3.35774 4.79525,4.4061 4.36987,2.35553 8.03213,1.63173 12.04425,-2.38039 l 2.87187,-2.87186 0,-65.60515 0,-65.60514 13.5164,0.27822 13.51639,0.27822 -0.003,67.67662 c -0.003,66.13382 -0.0505,67.8036 -2.087,73.24666 -2.94182,7.86272 -10.44669,15.75583 -18.78799,19.75994 -8.69678,4.17475 -20.68255,4.96363 -28.9313,1.9042 z" style="fill:#0f0f0f" inkscape:connector-curvature="0" />
    <path id="path3016" d="m -144.85207,-205.20414 0,-81.5 33.5,0 33.499999,0 0,14 0,14 -19.5,0 -19.499999,0 0,19.0516 0,19.05161 12.25,-0.17022 12.249999,-0.17021 0.27822,13.61861 0.278219,13.61861 -12.528218,0 -12.52822,0 0,35 0,35 -14,0 -14,0 0,-81.5 z" style="fill:#0f0f0f" inkscape:connector-curvature="0" />
    <path id="path3014" d="m 62.147929,-205.20414 0,-81.5 20.7899,0 c 22.638301,0 28.834691,0.93757 36.714051,5.55518 5.94377,3.48328 12.15599,10.48651 15.31637,17.26663 2.55677,5.48517 2.6582,6.39884 2.98383,26.87825 0.27098,17.0429 0.0218,22.4306 -1.27058,27.47535 -1.86593,7.28344 -5.26679,13.49114 -9.96491,18.18926 l -3.32206,3.32207 8.7653,30.01795 c 4.82091,16.50988 9.07075,30.98036 9.44409,32.15663 0.67205,2.11746 0.53562,2.13868 -13.75199,2.13868 l -14.43077,0 -4.19992,-16.25 c -4.18533,-16.19358 -14.871331,-56.76334 -15.777721,-59.90064 -0.34346,-1.1888 0.35504,-1.83335 2.4965,-2.3037 3.96716,-0.87133 11.134531,-7.12579 12.838031,-11.20285 0.98871,-2.36631 1.36988,-8.31743 1.36988,-21.38762 l 0,-18.10904 -2.92308,-2.92308 c -2.71638,-2.71638 -3.45884,-2.92307 -10.500001,-2.92307 l -7.57692,0 0,67.5 0,67.5 -13.5,0 -13.5,0 0,-81.5 z" style="fill:#0f0f0f" inkscape:connector-curvature="0" />
    <path id="path3012" d="m 193.13754,-124.45414 c -0.006,-0.4125 -0.11821,-30.675 -0.25,-67.25 l -0.23961,-66.5 -12.25,-0.28078 -12.25,-0.28078 0,-13.96922 0,-13.96922 38,0 38,0 0,14 0,14 -12,0 -12,0 0,67.5 0,67.5 -13.5,0 c -7.425,0 -13.50467,-0.3375 -13.51039,-0.75 z" style="fill:#0f0f0f" inkscape:connector-curvature="0" />
    <path id="path3010" d="m 388.14793,-205.20414 0,-81.5 13.79341,0 13.79341,0 1.06522,3.75 c 0.58588,2.0625 5.14009,16.575 10.12047,32.25 4.98039,15.675 10.47895,33.1125 12.21902,38.75 1.74008,5.6375 3.58803,10.25 4.10656,10.25 0.57653,0 0.91791,-16.41392 0.87873,-42.25 l -0.0641,-42.25 13.54362,-0.27822 13.54362,-0.27822 0,81.52822 0,81.52822 -15.29258,0 -15.29258,0 -2.86306,-9.25 c -1.57468,-5.0875 -4.34853,-13.9108 -6.16411,-19.60733 -1.81558,-5.69652 -5.87216,-18.63402 -9.01463,-28.75 -3.14246,-10.11597 -6.08695,-18.39267 -6.54331,-18.39267 -0.45635,0 -0.82973,17.1 -0.82973,38 l 0,38 -13.5,0 -13.5,0 0,-81.5 z" style="fill:#0f0f0f" inkscape:connector-curvature="0" />
    <path id="path3006" d="m 507.14793,-205.20414 0,-81.5 33.5,0 33.5,0 0,14 0,14 -20.02207,0 -20.02206,0 0.27206,18.75 0.27207,18.75 12.75103,0 12.75103,0 -10e-4,13.75 -10e-4,13.75 -13,0 -13,0 0,21 0,21 20,0 20,0 0,14 0,14 -33.5,0 -33.5,0 0,-81.5 z" style="fill:#0f0f0f" inkscape:connector-curvature="0" />
  </g>
</svg>
