<svg width="95" height="31" viewBox="0 0 95 31" fill="none" xmlns="http://www.w3.org/2000/svg">
<path d="M42.04 28C41.8053 28 41.6133 27.9253 41.464 27.776C41.3147 27.6267 41.24 27.4347 41.24 27.2V6.4C41.24 6.16533 41.3147 5.97333 41.464 5.824C41.6133 5.67467 41.8053 5.6 42.04 5.6H51C52.7707 5.6 54.3067 5.87733 55.608 6.432C56.9307 6.96533 57.9547 7.776 58.68 8.864C59.4267 9.952 59.8 11.328 59.8 12.992C59.8 14.6347 59.4267 15.9893 58.68 17.056C57.9547 18.1227 56.9307 18.912 55.608 19.424C54.3067 19.936 52.7707 20.192 51 20.192H47.192V27.2C47.192 27.4347 47.1067 27.6267 46.936 27.776C46.7867 27.9253 46.5947 28 46.36 28H42.04ZM47.096 15.776H50.84C51.7573 15.776 52.4827 15.5413 53.016 15.072C53.5707 14.6027 53.848 13.888 53.848 12.928C53.848 12.1173 53.6133 11.4347 53.144 10.88C52.6747 10.3253 51.9067 10.048 50.84 10.048H47.096V15.776ZM72.049 28.32C70.0223 28.32 68.2837 27.9893 66.833 27.328C65.4037 26.6667 64.2837 25.696 63.473 24.416C62.6837 23.136 62.2463 21.5467 62.161 19.648C62.1397 18.7733 62.129 17.8347 62.129 16.832C62.129 15.8293 62.1397 14.8693 62.161 13.952C62.2463 12.096 62.6943 10.528 63.505 9.248C64.3157 7.94667 65.4463 6.96533 66.897 6.304C68.3477 5.62133 70.065 5.28 72.049 5.28C73.457 5.28 74.7583 5.46133 75.953 5.824C77.1477 6.16533 78.193 6.67733 79.089 7.36C79.985 8.02133 80.6783 8.832 81.169 9.792C81.681 10.7307 81.9477 11.7973 81.969 12.992C81.9903 13.184 81.9263 13.344 81.777 13.472C81.649 13.6 81.489 13.664 81.297 13.664H76.977C76.6997 13.664 76.4863 13.6107 76.337 13.504C76.1877 13.376 76.0597 13.152 75.953 12.832C75.6543 11.7013 75.1637 10.9333 74.481 10.528C73.8197 10.1013 72.9983 9.888 72.017 9.888C70.8437 9.888 69.9157 10.2187 69.233 10.88C68.5503 11.52 68.177 12.5973 68.113 14.112C68.049 15.8613 68.049 17.6533 68.113 19.488C68.177 21.0027 68.5503 22.0907 69.233 22.752C69.9157 23.392 70.8437 23.712 72.017 23.712C72.9983 23.712 73.8303 23.4987 74.513 23.072C75.1957 22.6453 75.6757 21.8773 75.953 20.768C76.0383 20.448 76.1557 20.2347 76.305 20.128C76.4757 20 76.6997 19.936 76.977 19.936H81.297C81.489 19.936 81.649 20 81.777 20.128C81.9263 20.256 81.9903 20.416 81.969 20.608C81.9477 21.8027 81.681 22.88 81.169 23.84C80.6783 24.7787 79.985 25.5893 79.089 26.272C78.193 26.9333 77.1477 27.4453 75.953 27.808C74.7583 28.1493 73.457 28.32 72.049 28.32ZM86.1338 28C85.8991 28 85.7071 27.9253 85.5578 27.776C85.4084 27.6267 85.3338 27.4347 85.3338 27.2V6.4C85.3338 6.16533 85.4084 5.97333 85.5578 5.824C85.7071 5.67467 85.8991 5.6 86.1338 5.6H90.4218C90.6564 5.6 90.8484 5.67467 90.9978 5.824C91.1471 5.97333 91.2218 6.16533 91.2218 6.4V27.2C91.2218 27.4347 91.1471 27.6267 90.9978 27.776C90.8484 27.9253 90.6564 28 90.4218 28H86.1338Z" fill="#BAD7E9"/>
<mask id="mask0_6_21" style="mask-type:luminance" maskUnits="userSpaceOnUse" x="0" y="0" width="31" height="31">
<path d="M30.9997 0H0V30.9988H30.9997V0Z" fill="white"/>
</mask>
<g mask="url(#mask0_6_21)">
<path d="M28.0352 6.38399C27.5894 5.77206 27.0997 5.19333 26.5699 4.65237C26.5323 4.61446 26.4966 4.57679 26.4589 4.53888C24.7845 2.86283 22.7484 1.59274 20.5068 0.826172V21.1578C20.5068 21.8394 20.3726 22.5142 20.1118 23.1439C19.851 23.7736 19.4688 24.3457 18.9868 24.8275C18.5049 25.3096 17.9328 25.6919 17.3031 25.9526C16.6735 26.2133 15.9986 26.3476 15.3171 26.3476H12.2234V30.6522C13.3002 30.8819 14.3982 30.9978 15.4993 30.9978C18.3584 30.998 21.1619 30.2076 23.5997 28.7137C26.0375 27.2198 28.0144 25.0804 29.3119 22.5328C30.6094 19.985 31.1768 17.128 30.9516 14.2778C30.7263 11.4276 29.717 8.69525 28.0352 6.38302V6.38399Z" fill="#5097D9"/>
<path d="M15.4993 2.57148e-09C12.6402 0.000272256 9.837 0.791252 7.39951 2.28547C4.96206 3.77969 2.98532 5.91893 1.68792 8.46662C0.39052 11.0143 -0.176993 13.8712 0.0481386 16.7213C0.273269 19.5715 1.28228 22.3038 2.96357 24.6162C3.41044 25.2279 3.90088 25.8066 4.43105 26.3476C4.46749 26.3843 4.5032 26.421 4.53964 26.4601C6.21372 28.136 8.24916 29.4063 10.49 30.1738V9.84018C10.4906 8.46383 11.0378 7.14405 12.0112 6.17104C12.9846 5.19803 14.3046 4.65142 15.681 4.65142H18.7747V0.346814C17.6981 0.116229 16.6002 -1.99635e-05 15.4993 2.57148e-09Z" fill="#BAD7E9"/>
</g>
</svg>
